<svg width="1440" height="391" viewBox="0 0 1440 391" fill="none" xmlns="http://www.w3.org/2000/svg">
<g clip-path="url(#clip0_438_58347)">
<rect width="1441" height="391" fill="#DCCEEE" fill-opacity="0.1"/>
<mask id="mask0_438_58347" style="mask-type:alpha" maskUnits="userSpaceOnUse" x="1014" y="-3" width="428" height="400">
<rect x="1014" y="-2.84741" width="427.154" height="399.379" fill="#C4C4C4"/>
</mask>
<g mask="url(#mask0_438_58347)">
<rect x="1014" y="-2.84753" width="427.154" height="399.379" fill="#FAE3FD" fill-opacity="0.1"/>
<mask id="mask1_438_58347" style="mask-type:alpha" maskUnits="userSpaceOnUse" x="1014" y="-3" width="428" height="400">
<rect x="1441.16" y="-2.84766" width="399.379" height="427.154" transform="rotate(90 1441.16 -2.84766)" fill="#C4C4C4"/>
</mask>
<g mask="url(#mask1_438_58347)">
<rect x="1583.54" y="-135.975" width="266.252" height="284.769" transform="rotate(90 1583.54 -135.975)" fill="#9958ED" fill-opacity="0.1"/>
<rect x="1298.77" y="130.278" width="266.252" height="284.769" transform="rotate(90 1298.77 130.278)" fill="#A66FEB" fill-opacity="0.1"/>
<path d="M1583.54 396.529C1583.54 379.047 1579.86 361.736 1572.7 345.584C1565.55 329.433 1555.06 314.757 1541.84 302.395C1528.62 290.033 1512.92 280.227 1495.64 273.537C1478.37 266.847 1459.85 263.403 1441.16 263.403C1422.46 263.403 1403.94 266.847 1386.67 273.537C1369.39 280.227 1353.7 290.033 1340.47 302.395C1327.25 314.757 1316.76 329.433 1309.61 345.584C1302.45 361.736 1298.77 379.047 1298.77 396.529L1583.54 396.529Z" fill="#BC8FF6" fill-opacity="0.1"/>
<g filter="url(#filter0_f_438_58347)">
<ellipse cx="1454.42" cy="404.167" rx="101.355" ry="94.7646" transform="rotate(-180 1454.42 404.167)" fill="#9B50F6" fill-opacity="0.5"/>
</g>
<path d="M1298.77 130.277C1298.77 112.795 1295.09 95.4835 1287.93 79.3319C1280.78 63.1803 1270.29 48.5045 1257.07 36.1426C1243.85 23.7807 1228.15 13.9747 1210.88 7.2845C1193.6 0.594288 1175.09 -2.84912 1156.39 -2.84912C1137.69 -2.84912 1119.17 0.59429 1101.9 7.28451C1084.62 13.9747 1068.93 23.7807 1055.71 36.1426C1042.48 48.5045 1032 63.1803 1024.84 79.3319C1017.69 95.4835 1014 112.795 1014 130.277L1298.77 130.277Z" fill="#BC8FF6" fill-opacity="0.1"/>
<path d="M1298.77 130.278C1298.77 147.76 1302.46 165.072 1309.61 181.223C1316.77 197.375 1327.25 212.051 1340.48 224.412C1353.7 236.774 1369.39 246.58 1386.67 253.271C1403.94 259.961 1422.46 263.404 1441.16 263.404C1459.86 263.404 1478.37 259.961 1495.65 253.271C1512.92 246.58 1528.62 236.774 1541.84 224.412C1555.06 212.051 1565.55 197.375 1572.7 181.223C1579.86 165.072 1583.54 147.76 1583.54 130.278L1298.77 130.278Z" fill="#BC8FF6" fill-opacity="0.1"/>
</g>
<path d="M1157.58 262.411L1143.94 262.411C1106.87 262.411 1076.82 292.463 1076.82 329.533C1076.82 366.604 1106.87 396.655 1143.94 396.655L1157.58 396.655L1157.58 262.411Z" fill="#BC8FF6" fill-opacity="0.1"/>
<path d="M1014 396.655L1027.65 396.655C1064.72 396.655 1094.77 366.604 1094.77 329.533C1094.77 292.463 1064.72 262.411 1027.65 262.411L1014 262.411L1014 396.655Z" fill="#BC8FF6" fill-opacity="0.1"/>
<mask id="mask2_438_58347" style="mask-type:alpha" maskUnits="userSpaceOnUse" x="1082" y="-3" width="360" height="336">
<path d="M1082.58 -2.80724L1441.29 -2.80721L1082.58 332.57L1082.58 -2.80724Z" fill="white"/>
</mask>
<g mask="url(#mask2_438_58347)">
<g filter="url(#filter1_f_438_58347)">
<ellipse cx="186.559" cy="199.533" rx="186.559" ry="199.533" transform="matrix(4.67513e-08 -1 -1 -4.08691e-08 1533.32 221.977)" fill="#BC8FF6" fill-opacity="0.1"/>
</g>
</g>
<mask id="mask3_438_58347" style="mask-type:alpha" maskUnits="userSpaceOnUse" x="1014" y="130" width="285" height="267">
<rect x="1298.77" y="130.28" width="266.252" height="284.769" transform="rotate(90 1298.77 130.28)" fill="#C598FF"/>
</mask>
<g mask="url(#mask3_438_58347)">
<mask id="mask4_438_58347" style="mask-type:alpha" maskUnits="userSpaceOnUse" x="895" y="88" width="447" height="418">
<path d="M971.657 88.3294C947.391 111.017 928.142 137.952 915.01 167.595C901.877 197.238 895.118 229.01 895.118 261.095C895.118 293.181 901.877 324.952 915.01 354.595C928.142 384.238 947.391 411.173 971.657 433.861C995.922 456.549 1024.73 474.546 1056.43 486.824C1088.14 499.103 1122.12 505.423 1156.44 505.423C1190.75 505.423 1224.74 499.103 1256.44 486.824C1288.14 474.546 1316.95 456.549 1341.22 433.861L1156.44 261.095L971.657 88.3294Z" fill="#C4C4C4"/>
</mask>
<g mask="url(#mask4_438_58347)">
<g filter="url(#filter2_f_438_58347)">
<ellipse cx="1204.94" cy="349.656" rx="126.783" ry="118.539" fill="#F8D0FF" fill-opacity="0.5"/>
</g>
</g>
</g>
<path d="M1298.91 130.527C1298.91 148.01 1302.59 165.321 1309.74 181.472C1316.9 197.624 1327.39 212.3 1340.61 224.662C1353.83 237.024 1369.53 246.83 1386.8 253.52C1404.08 260.21 1422.59 263.653 1441.29 263.653L1441.29 130.527L1298.91 130.527Z" fill="#BC8FF6" fill-opacity="0.1"/>
<mask id="mask5_438_58347" style="mask-type:alpha" maskUnits="userSpaceOnUse" x="1298" y="-3" width="144" height="134">
<rect x="1441.15" y="-2.84753" width="133.002" height="142.252" transform="rotate(90 1441.15 -2.84753)" fill="#A259FF"/>
</mask>
<g mask="url(#mask5_438_58347)">
<g filter="url(#filter3_f_438_58347)">
<ellipse cx="1429.8" cy="10.0059" rx="95.9328" ry="102.605" transform="rotate(-90 1429.8 10.0059)" fill="#9B50F6" fill-opacity="0.5"/>
</g>
</g>
</g>
<rect x="-41" y="-188.189" width="1180.65" height="1008.48" fill="#FAE3FD" fill-opacity="0.1"/>
<rect x="-41" y="-188.189" width="659.196" height="1008.48" fill="#9E52FD" fill-opacity="0.1"/>
<mask id="mask6_438_58347" style="mask-type:alpha" maskUnits="userSpaceOnUse" x="586" y="-189" width="554" height="841">
<path d="M586.285 -188.09L1139.84 -188.09L586.285 651.729L586.285 -188.09Z" fill="white"/>
</mask>
<g mask="url(#mask6_438_58347)">
<g filter="url(#filter4_f_438_58347)">
<ellipse cx="467.162" cy="307.926" rx="467.162" ry="307.926" transform="matrix(2.8812e-08 -1 -1 -6.63157e-08 1326.22 345.643)" fill="#9E52FD" fill-opacity="0.1"/>
</g>
</g>
<mask id="mask7_438_58347" style="mask-type:alpha" maskUnits="userSpaceOnUse" x="-41" y="147" width="440" height="673">
<rect x="398.669" y="147.672" width="671.698" height="439.669" transform="rotate(90 398.669 147.672)" fill="#A259FF"/>
</mask>
<g mask="url(#mask7_438_58347)">
<mask id="mask8_438_58347" style="mask-type:alpha" maskUnits="userSpaceOnUse" x="-225" y="42" width="689" height="1046">
<path d="M-106.347 42.6248C-143.795 99.4376 -173.5 166.884 -193.766 241.114C-214.033 315.343 -224.464 394.902 -224.464 475.247C-224.464 555.593 -214.033 635.152 -193.766 709.381C-173.5 783.611 -143.794 851.057 -106.347 907.87C-68.8992 964.683 -24.4423 1009.75 24.4854 1040.5C73.4131 1071.24 125.854 1087.07 178.813 1087.07C231.771 1087.07 284.212 1071.24 333.14 1040.5C382.067 1009.75 426.524 964.683 463.972 907.87L178.812 475.247L-106.347 42.6248Z" fill="#C4C4C4"/>
</mask>
<g mask="url(#mask8_438_58347)">
<g filter="url(#filter5_f_438_58347)">
<ellipse cx="185.386" cy="493.768" rx="195.656" ry="296.834" fill="#FAE3FD" fill-opacity="0.1"/>
</g>
</g>
</g>
<mask id="mask9_438_58347" style="mask-type:alpha" maskUnits="userSpaceOnUse" x="618" y="22" width="522" height="799">
<rect x="618.196" y="820.292" width="797.642" height="521.454" transform="rotate(-90 618.196 820.292)" fill="#A259FF"/>
</mask>
<g mask="url(#mask9_438_58347)">
<g filter="url(#filter6_f_438_58347)">
<ellipse cx="878.71" cy="959.3" rx="571.957" ry="376.119" transform="rotate(90 878.71 959.3)" fill="#9E52FD" fill-opacity="0.1"/>
</g>
</g>
<mask id="mask10_438_58347" style="mask-type:alpha" maskUnits="userSpaceOnUse" x="-41" y="-189" width="660" height="1009">
<rect x="-41" y="-188.189" width="659.196" height="1007.55" fill="#FF47AB"/>
</mask>
<g mask="url(#mask10_438_58347)">
<g filter="url(#filter7_f_438_58347)">
<ellipse cx="242.265" cy="-404.95" rx="570.62" ry="376.119" transform="rotate(90 242.265 -404.95)" fill="#FAE3FD" fill-opacity="0.1"/>
</g>
</g>
</g>
<defs>
<filter id="filter0_f_438_58347" x="1271.69" y="228.028" width="365.459" height="352.278" filterUnits="userSpaceOnUse" color-interpolation-filters="sRGB">
<feFlood flood-opacity="0" result="BackgroundImageFix"/>
<feBlend mode="normal" in="SourceGraphic" in2="BackgroundImageFix" result="shape"/>
<feGaussianBlur stdDeviation="40.6872" result="effect1_foregroundBlur_438_58347"/>
</filter>
<filter id="filter1_f_438_58347" x="998.463" y="-286.936" width="670.657" height="644.708" filterUnits="userSpaceOnUse" color-interpolation-filters="sRGB">
<feFlood flood-opacity="0" result="BackgroundImageFix"/>
<feBlend mode="normal" in="SourceGraphic" in2="BackgroundImageFix" result="shape"/>
<feGaussianBlur stdDeviation="67.8977" result="effect1_foregroundBlur_438_58347"/>
</filter>
<filter id="filter2_f_438_58347" x="973.804" y="126.764" width="462.272" height="445.784" filterUnits="userSpaceOnUse" color-interpolation-filters="sRGB">
<feFlood flood-opacity="0" result="BackgroundImageFix"/>
<feBlend mode="normal" in="SourceGraphic" in2="BackgroundImageFix" result="shape"/>
<feGaussianBlur stdDeviation="52.1764" result="effect1_foregroundBlur_438_58347"/>
</filter>
<filter id="filter3_f_438_58347" x="1236.02" y="-177.102" width="387.559" height="374.216" filterUnits="userSpaceOnUse" color-interpolation-filters="sRGB">
<feFlood flood-opacity="0" result="BackgroundImageFix"/>
<feBlend mode="normal" in="SourceGraphic" in2="BackgroundImageFix" result="shape"/>
<feGaussianBlur stdDeviation="45.5876" result="effect1_foregroundBlur_438_58347"/>
</filter>
<filter id="filter4_f_438_58347" x="576.169" y="-722.885" width="884.258" height="1202.73" filterUnits="userSpaceOnUse" color-interpolation-filters="sRGB">
<feFlood flood-opacity="0" result="BackgroundImageFix"/>
<feBlend mode="normal" in="SourceGraphic" in2="BackgroundImageFix" result="shape"/>
<feGaussianBlur stdDeviation="67.1018" result="effect1_foregroundBlur_438_58347"/>
</filter>
<filter id="filter5_f_438_58347" x="-113.399" y="93.8037" width="597.571" height="799.928" filterUnits="userSpaceOnUse" color-interpolation-filters="sRGB">
<feFlood flood-opacity="0" result="BackgroundImageFix"/>
<feBlend mode="normal" in="SourceGraphic" in2="BackgroundImageFix" result="shape"/>
<feGaussianBlur stdDeviation="51.5648" result="effect1_foregroundBlur_438_58347"/>
</filter>
<filter id="filter6_f_438_58347" x="288.557" y="173.308" width="1180.31" height="1571.98" filterUnits="userSpaceOnUse" color-interpolation-filters="sRGB">
<feFlood flood-opacity="0" result="BackgroundImageFix"/>
<feBlend mode="normal" in="SourceGraphic" in2="BackgroundImageFix" result="shape"/>
<feGaussianBlur stdDeviation="107.017" result="effect1_foregroundBlur_438_58347"/>
</filter>
<filter id="filter7_f_438_58347" x="-347.888" y="-1189.6" width="1180.31" height="1569.31" filterUnits="userSpaceOnUse" color-interpolation-filters="sRGB">
<feFlood flood-opacity="0" result="BackgroundImageFix"/>
<feBlend mode="normal" in="SourceGraphic" in2="BackgroundImageFix" result="shape"/>
<feGaussianBlur stdDeviation="107.017" result="effect1_foregroundBlur_438_58347"/>
</filter>
<clipPath id="clip0_438_58347">
<rect width="1441" height="391" fill="white"/>
</clipPath>
</defs>
</svg>
